<svg width="154" height="174" xmlns="http://www.w3.org/2000/svg" xmlns:xlink="http://www.w3.org/1999/xlink" overflow="hidden"><defs><clipPath id="clip0"><rect x="201" y="65" width="154" height="174"/></clipPath><clipPath id="clip1"><rect x="202" y="66" width="152" height="172"/></clipPath><clipPath id="clip2"><rect x="202" y="66" width="152" height="172"/></clipPath><clipPath id="clip3"><rect x="202" y="66" width="152" height="172"/></clipPath></defs><g clip-path="url(#clip0)" transform="translate(-201 -65)"><g clip-path="url(#clip1)"><g clip-path="url(#clip2)"><g clip-path="url(#clip3)"><path d="M81.8462 32.1538C86.9615 38.7308 89.8846 46.0385 89.8846 54.8077L89.8846 138.115C92.0769 138.846 95 139.577 97.1923 139.577L109.615 139.577 109.615 54.8077C109.615 47.5 108.154 40.1923 105.231 34.3462 103.038 28.5 100.115 24.1154 96.4615 19 95.7308 18.2692 94.2692 16.8077 93.5385 16.0769 83.3077 6.57692 70.1538 0 54.8077 0L0 0 0 116.923C0 132.269 6.57692 145.423 16.0769 155.654 26.3077 165.885 39.4615 171.731 54.8077 171.731L57 171.731C43.8462 163.692 19 150.538 19 116.923L19 19 54.8077 19C57 19 59.1923 19.7308 61.3846 19.7308 68.6923 21.1923 74.5385 24.8462 79.6538 29.9615 80.3846 30.6923 81.8462 31.4231 81.8462 32.1538L81.8462 32.1538ZM122.769 171.731 152 171.731 152 54.8077C152 39.4615 145.423 26.3077 135.923 16.0769 125.692 6.57692 112.538 0 97.1923 0L95 0C110.346 4.38462 132.269 27.0385 132.269 54.8077L132.269 152.731 97.1923 152.731C95 152.731 92.0769 152 89.8846 152 83.3077 150.538 76.7308 146.885 72.3462 142.5 70.8846 141.038 70.1538 140.308 69.4231 139.577 64.3077 133.731 61.3846 125.692 61.3846 116.923L61.3846 33.6154C59.1923 32.8846 57 32.1538 54.8077 32.1538L42.3846 32.1538 42.3846 116.923C42.3846 124.231 43.8462 131.538 46.7692 138.115 48.9615 143.231 51.8846 148.346 55.5385 152.731 56.2692 153.462 57 154.923 58.4615 155.654 68.6923 165.885 81.8462 171.731 97.1923 171.731L122.769 171.731ZM72.3462 142.5 72.3462 142.5Z" fill="#AD2B2C" fill-rule="evenodd" transform="matrix(1 0 0 1.00157 202 66)"/><path d="M72.3462 142.5C70.8846 141.038 70.1538 140.308 69.4231 139.577 64.3077 133.731 61.3846 125.692 61.3846 116.923L61.3846 33.6154C59.1923 32.8846 57 32.1538 54.8077 32.1538L42.3846 32.1538 42.3846 116.923C42.3846 124.231 43.8462 131.538 46.7692 138.115 48.9615 143.231 51.8846 148.346 55.5385 152.731 56.2692 153.462 57 154.923 58.4615 155.654 68.6923 165.885 81.8462 171.731 97.1923 171.731L122.769 171.731 152 171.731 152 54.8077C152 39.4615 145.423 26.3077 135.923 16.0769 125.692 6.57692 112.538 0 97.1923 0L95 0C110.346 4.38462 132.269 27.0385 132.269 54.8077L132.269 152.731 97.1923 152.731C95 152.731 92.0769 152 89.8846 152 83.3077 150.538 76.7308 146.885 72.3462 142.5Z" fill="#2D548F" fill-rule="evenodd" transform="matrix(1 0 0 1.00157 202 66)"/></g></g></g></g></svg>